<svg xmlns="http://www.w3.org/2000/svg" width="1500" height="780" viewBox="0 0 1500 780">
<rect width="1500" height="780" fill="#eef1f6"/>
<defs><pattern id="grid" width="22" height="22" patternUnits="userSpaceOnUse"><circle cx="1" cy="1" r="1" fill="#d3dae4"/></pattern></defs>
<rect x="0" y="78" width="1500" height="702" fill="url(#grid)"/>
<text x="750.0" y="40" font-family="DejaVu Sans, Arial, sans-serif" font-size="23" font-weight="800" fill="#1b2a4a" text-anchor="middle">ERD - DatVe DB</text>
<text x="750.0" y="63" font-family="DejaVu Sans, Arial, sans-serif" font-size="13" fill="#5c6b82" text-anchor="middle">Dat ve online cho khach  (Neon: ep-holy-recipe, Prisma + NextAuth)</text>
<path d="M644,536.5 L732.0,536.5 L732.0,341.5 L820,341.5" fill="none" stroke="#9aa5b4" stroke-width="1.6"/>
<line x1="653" y1="542.5" x2="653" y2="530.5" stroke="#9aa5b4" stroke-width="1.6"/>
<line x1="820" y1="341.5" x2="807.0" y2="335.0" stroke="#9aa5b4" stroke-width="1.6"/>
<line x1="820" y1="341.5" x2="807.0" y2="348.0" stroke="#9aa5b4" stroke-width="1.6"/>
<line x1="820" y1="341.5" x2="807" y2="341.5" stroke="#9aa5b4" stroke-width="1.6"/>
<rect x="709.2" y="518.5" width="45.599999999999994" height="15" rx="7" fill="#f4f6f9" stroke="#d6dbe3" stroke-width="0.8"/>
<text x="732.0" y="529.5" font-family="DejaVu Sans, Arial, sans-serif" font-size="9.5" fill="#56657a" text-anchor="middle">userId</text>
<path d="M651,214.0 L735.5,214.0 L735.5,341.5 L820,341.5" fill="none" stroke="#9aa5b4" stroke-width="1.6"/>
<line x1="660" y1="220.0" x2="660" y2="208.0" stroke="#9aa5b4" stroke-width="1.6"/>
<line x1="820" y1="341.5" x2="807.0" y2="335.0" stroke="#9aa5b4" stroke-width="1.6"/>
<line x1="820" y1="341.5" x2="807.0" y2="348.0" stroke="#9aa5b4" stroke-width="1.6"/>
<line x1="820" y1="341.5" x2="807" y2="341.5" stroke="#9aa5b4" stroke-width="1.6"/>
<rect x="701.5" y="196.0" width="68.0" height="15" rx="7" fill="#f4f6f9" stroke="#d6dbe3" stroke-width="0.8"/>
<text x="735.5" y="207.0" font-family="DejaVu Sans, Arial, sans-serif" font-size="9.5" fill="#56657a" text-anchor="middle">scheduleId</text>
<path d="M256,201.5 L338.0,201.5 L338.0,214.0 L420,214.0" fill="none" stroke="#9aa5b4" stroke-width="1.6"/>
<line x1="265" y1="207.5" x2="265" y2="195.5" stroke="#9aa5b4" stroke-width="1.6"/>
<line x1="420" y1="214.0" x2="407.0" y2="207.5" stroke="#9aa5b4" stroke-width="1.6"/>
<line x1="420" y1="214.0" x2="407.0" y2="220.5" stroke="#9aa5b4" stroke-width="1.6"/>
<line x1="420" y1="214.0" x2="407" y2="214.0" stroke="#9aa5b4" stroke-width="1.6"/>
<rect x="312.4" y="183.5" width="51.199999999999996" height="15" rx="7" fill="#f4f6f9" stroke="#d6dbe3" stroke-width="0.8"/>
<text x="338.0" y="194.5" font-family="DejaVu Sans, Arial, sans-serif" font-size="9.5" fill="#56657a" text-anchor="middle">routeId</text>
<path d="M256,466.5 L338.0,466.5 L338.0,214.0 L420,214.0" fill="none" stroke="#9aa5b4" stroke-width="1.6"/>
<line x1="265" y1="472.5" x2="265" y2="460.5" stroke="#9aa5b4" stroke-width="1.6"/>
<line x1="420" y1="214.0" x2="407.0" y2="207.5" stroke="#9aa5b4" stroke-width="1.6"/>
<line x1="420" y1="214.0" x2="407.0" y2="220.5" stroke="#9aa5b4" stroke-width="1.6"/>
<line x1="420" y1="214.0" x2="407" y2="214.0" stroke="#9aa5b4" stroke-width="1.6"/>
<rect x="318.0" y="448.5" width="40.0" height="15" rx="7" fill="#f4f6f9" stroke="#d6dbe3" stroke-width="0.8"/>
<text x="338.0" y="459.5" font-family="DejaVu Sans, Arial, sans-serif" font-size="9.5" fill="#56657a" text-anchor="middle">busId</text>
<path d="M1051,341.5 L1125.5,341.5 L1125.5,304.0 L1200,304.0" fill="none" stroke="#9aa5b4" stroke-width="1.6"/>
<line x1="1060" y1="347.5" x2="1060" y2="335.5" stroke="#9aa5b4" stroke-width="1.6"/>
<line x1="1191" y1="298.0" x2="1191" y2="310.0" stroke="#9aa5b4" stroke-width="1.6"/>
<rect x="1077.5" y="323.5" width="96.0" height="15" rx="7" fill="#f4f6f9" stroke="#d6dbe3" stroke-width="0.8"/>
<text x="1125.5" y="334.5" font-family="DejaVu Sans, Arial, sans-serif" font-size="9.5" fill="#56657a" text-anchor="middle">bookingId (1:1)</text>
<rect x="422" y="423" width="224" height="233" rx="7" fill="#0b1b33" opacity="0.07"/>
<rect x="420" y="420" width="224" height="233" rx="7" fill="#ffffff" stroke="#d6dbe3" stroke-width="1.2"/>
<path d="M420,453 L420,427 Q420,420 427,420 L637,420 Q644,420 644,427 L644,453 Z" fill="#4361ee"/>
<text x="532.0" y="441.5" font-family="DejaVu Sans, Arial, sans-serif" font-size="14" font-weight="700" fill="#ffffff" text-anchor="middle">User</text>
<circle cx="434" cy="465.5" r="3.3" fill="none" stroke="#e0a100" stroke-width="2"/><line x1="437" y1="465.5" x2="444" y2="465.5" stroke="#e0a100" stroke-width="2"/><line x1="441" y1="465.5" x2="441" y2="468.7" stroke="#e0a100" stroke-width="2"/><line x1="444" y1="465.5" x2="444" y2="468.7" stroke="#e0a100" stroke-width="2"/>
<text x="450" y="469.5" font-family="DejaVu Sans, Arial, sans-serif" font-size="11.5" font-weight="700" fill="#1f2a37" text-decoration="underline">id</text>
<text x="632" y="469.5" font-family="DejaVu Sans, Arial, sans-serif" font-size="10.5" fill="#8a97a8" text-anchor="end">SERIAL</text>
<rect x="421" y="478" width="222" height="25" fill="#f3f5fd"/>
<line x1="421" y1="478" x2="643" y2="478" stroke="#eef1f5" stroke-width="1"/>
<circle cx="436" cy="490.5" r="3.6" fill="#fff" stroke="#1a843f" stroke-width="2"/>
<text x="450" y="494.5" font-family="DejaVu Sans, Arial, sans-serif" font-size="11.5" font-weight="400" fill="#1f2a37">email</text>
<text x="632" y="494.5" font-family="DejaVu Sans, Arial, sans-serif" font-size="10.5" fill="#8a97a8" text-anchor="end">VARCHAR</text>
<line x1="421" y1="503" x2="643" y2="503" stroke="#eef1f5" stroke-width="1"/>
<text x="450" y="519.5" font-family="DejaVu Sans, Arial, sans-serif" font-size="11.5" font-weight="400" fill="#1f2a37">name</text>
<text x="632" y="519.5" font-family="DejaVu Sans, Arial, sans-serif" font-size="10.5" fill="#8a97a8" text-anchor="end">VARCHAR</text>
<rect x="421" y="528" width="222" height="25" fill="#f3f5fd"/>
<line x1="421" y1="528" x2="643" y2="528" stroke="#eef1f5" stroke-width="1"/>
<text x="450" y="544.5" font-family="DejaVu Sans, Arial, sans-serif" font-size="11.5" font-weight="400" fill="#1f2a37">phone</text>
<text x="632" y="544.5" font-family="DejaVu Sans, Arial, sans-serif" font-size="10.5" fill="#8a97a8" text-anchor="end">VARCHAR</text>
<line x1="421" y1="553" x2="643" y2="553" stroke="#eef1f5" stroke-width="1"/>
<text x="450" y="569.5" font-family="DejaVu Sans, Arial, sans-serif" font-size="11.5" font-weight="400" fill="#1f2a37">password</text>
<text x="632" y="569.5" font-family="DejaVu Sans, Arial, sans-serif" font-size="10.5" fill="#8a97a8" text-anchor="end">VARCHAR</text>
<rect x="421" y="578" width="222" height="25" fill="#f3f5fd"/>
<line x1="421" y1="578" x2="643" y2="578" stroke="#eef1f5" stroke-width="1"/>
<text x="450" y="594.5" font-family="DejaVu Sans, Arial, sans-serif" font-size="11.5" font-weight="400" fill="#1f2a37">role</text>
<text x="632" y="594.5" font-family="DejaVu Sans, Arial, sans-serif" font-size="10.5" fill="#8a97a8" text-anchor="end">ENUM</text>
<line x1="421" y1="603" x2="643" y2="603" stroke="#eef1f5" stroke-width="1"/>
<text x="450" y="619.5" font-family="DejaVu Sans, Arial, sans-serif" font-size="11.5" font-weight="400" fill="#1f2a37">vehiclePlate</text>
<text x="632" y="619.5" font-family="DejaVu Sans, Arial, sans-serif" font-size="10.5" fill="#8a97a8" text-anchor="end">VARCHAR</text>
<rect x="421" y="628" width="222" height="25" fill="#f3f5fd"/>
<line x1="421" y1="628" x2="643" y2="628" stroke="#eef1f5" stroke-width="1"/>
<text x="450" y="644.5" font-family="DejaVu Sans, Arial, sans-serif" font-size="11.5" font-weight="400" fill="#1f2a37">createdAt</text>
<text x="632" y="644.5" font-family="DejaVu Sans, Arial, sans-serif" font-size="10.5" fill="#8a97a8" text-anchor="end">TIMESTAMP</text>
<rect x="42" y="113" width="216" height="183" rx="7" fill="#0b1b33" opacity="0.07"/>
<rect x="40" y="110" width="216" height="183" rx="7" fill="#ffffff" stroke="#d6dbe3" stroke-width="1.2"/>
<path d="M40,143 L40,117 Q40,110 47,110 L249,110 Q256,110 256,117 L256,143 Z" fill="#2a9d8f"/>
<text x="148.0" y="131.5" font-family="DejaVu Sans, Arial, sans-serif" font-size="14" font-weight="700" fill="#ffffff" text-anchor="middle">Route</text>
<circle cx="54" cy="155.5" r="3.3" fill="none" stroke="#e0a100" stroke-width="2"/><line x1="57" y1="155.5" x2="64" y2="155.5" stroke="#e0a100" stroke-width="2"/><line x1="61" y1="155.5" x2="61" y2="158.7" stroke="#e0a100" stroke-width="2"/><line x1="64" y1="155.5" x2="64" y2="158.7" stroke="#e0a100" stroke-width="2"/>
<text x="70" y="159.5" font-family="DejaVu Sans, Arial, sans-serif" font-size="11.5" font-weight="700" fill="#1f2a37" text-decoration="underline">id</text>
<text x="244" y="159.5" font-family="DejaVu Sans, Arial, sans-serif" font-size="10.5" fill="#8a97a8" text-anchor="end">SERIAL</text>
<rect x="41" y="168" width="214" height="25" fill="#f2f9f8"/>
<line x1="41" y1="168" x2="255" y2="168" stroke="#eef1f5" stroke-width="1"/>
<text x="70" y="184.5" font-family="DejaVu Sans, Arial, sans-serif" font-size="11.5" font-weight="400" fill="#1f2a37">fromCity</text>
<text x="244" y="184.5" font-family="DejaVu Sans, Arial, sans-serif" font-size="10.5" fill="#8a97a8" text-anchor="end">VARCHAR</text>
<line x1="41" y1="193" x2="255" y2="193" stroke="#eef1f5" stroke-width="1"/>
<text x="70" y="209.5" font-family="DejaVu Sans, Arial, sans-serif" font-size="11.5" font-weight="400" fill="#1f2a37">toCity</text>
<text x="244" y="209.5" font-family="DejaVu Sans, Arial, sans-serif" font-size="10.5" fill="#8a97a8" text-anchor="end">VARCHAR</text>
<rect x="41" y="218" width="214" height="25" fill="#f2f9f8"/>
<line x1="41" y1="218" x2="255" y2="218" stroke="#eef1f5" stroke-width="1"/>
<text x="70" y="234.5" font-family="DejaVu Sans, Arial, sans-serif" font-size="11.5" font-weight="400" fill="#1f2a37">price</text>
<text x="244" y="234.5" font-family="DejaVu Sans, Arial, sans-serif" font-size="10.5" fill="#8a97a8" text-anchor="end">DECIMAL</text>
<line x1="41" y1="243" x2="255" y2="243" stroke="#eef1f5" stroke-width="1"/>
<text x="70" y="259.5" font-family="DejaVu Sans, Arial, sans-serif" font-size="11.5" font-weight="400" fill="#1f2a37">duration</text>
<text x="244" y="259.5" font-family="DejaVu Sans, Arial, sans-serif" font-size="10.5" fill="#8a97a8" text-anchor="end">INTEGER</text>
<rect x="41" y="268" width="214" height="25" fill="#f2f9f8"/>
<line x1="41" y1="268" x2="255" y2="268" stroke="#eef1f5" stroke-width="1"/>
<text x="70" y="284.5" font-family="DejaVu Sans, Arial, sans-serif" font-size="11.5" font-weight="400" fill="#1f2a37">isActive</text>
<text x="244" y="284.5" font-family="DejaVu Sans, Arial, sans-serif" font-size="10.5" fill="#8a97a8" text-anchor="end">BOOLEAN</text>
<rect x="42" y="403" width="216" height="133" rx="7" fill="#0b1b33" opacity="0.07"/>
<rect x="40" y="400" width="216" height="133" rx="7" fill="#ffffff" stroke="#d6dbe3" stroke-width="1.2"/>
<path d="M40,433 L40,407 Q40,400 47,400 L249,400 Q256,400 256,407 L256,433 Z" fill="#e76f51"/>
<text x="148.0" y="421.5" font-family="DejaVu Sans, Arial, sans-serif" font-size="14" font-weight="700" fill="#ffffff" text-anchor="middle">Bus</text>
<circle cx="54" cy="445.5" r="3.3" fill="none" stroke="#e0a100" stroke-width="2"/><line x1="57" y1="445.5" x2="64" y2="445.5" stroke="#e0a100" stroke-width="2"/><line x1="61" y1="445.5" x2="61" y2="448.7" stroke="#e0a100" stroke-width="2"/><line x1="64" y1="445.5" x2="64" y2="448.7" stroke="#e0a100" stroke-width="2"/>
<text x="70" y="449.5" font-family="DejaVu Sans, Arial, sans-serif" font-size="11.5" font-weight="700" fill="#1f2a37" text-decoration="underline">id</text>
<text x="244" y="449.5" font-family="DejaVu Sans, Arial, sans-serif" font-size="10.5" fill="#8a97a8" text-anchor="end">SERIAL</text>
<rect x="41" y="458" width="214" height="25" fill="#fdf6f4"/>
<line x1="41" y1="458" x2="255" y2="458" stroke="#eef1f5" stroke-width="1"/>
<circle cx="56" cy="470.5" r="3.6" fill="#fff" stroke="#1a843f" stroke-width="2"/>
<text x="70" y="474.5" font-family="DejaVu Sans, Arial, sans-serif" font-size="11.5" font-weight="400" fill="#1f2a37">plate</text>
<text x="244" y="474.5" font-family="DejaVu Sans, Arial, sans-serif" font-size="10.5" fill="#8a97a8" text-anchor="end">VARCHAR</text>
<line x1="41" y1="483" x2="255" y2="483" stroke="#eef1f5" stroke-width="1"/>
<text x="70" y="499.5" font-family="DejaVu Sans, Arial, sans-serif" font-size="11.5" font-weight="400" fill="#1f2a37">model</text>
<text x="244" y="499.5" font-family="DejaVu Sans, Arial, sans-serif" font-size="10.5" fill="#8a97a8" text-anchor="end">VARCHAR</text>
<rect x="41" y="508" width="214" height="25" fill="#fdf6f4"/>
<line x1="41" y1="508" x2="255" y2="508" stroke="#eef1f5" stroke-width="1"/>
<text x="70" y="524.5" font-family="DejaVu Sans, Arial, sans-serif" font-size="11.5" font-weight="400" fill="#1f2a37">seats</text>
<text x="244" y="524.5" font-family="DejaVu Sans, Arial, sans-serif" font-size="10.5" fill="#8a97a8" text-anchor="end">INTEGER</text>
<rect x="422" y="113" width="231" height="208" rx="7" fill="#0b1b33" opacity="0.07"/>
<rect x="420" y="110" width="231" height="208" rx="7" fill="#ffffff" stroke="#d6dbe3" stroke-width="1.2"/>
<path d="M420,143 L420,117 Q420,110 427,110 L644,110 Q651,110 651,117 L651,143 Z" fill="#7b2cbf"/>
<text x="535.5" y="131.5" font-family="DejaVu Sans, Arial, sans-serif" font-size="14" font-weight="700" fill="#ffffff" text-anchor="middle">Schedule</text>
<circle cx="434" cy="155.5" r="3.3" fill="none" stroke="#e0a100" stroke-width="2"/><line x1="437" y1="155.5" x2="444" y2="155.5" stroke="#e0a100" stroke-width="2"/><line x1="441" y1="155.5" x2="441" y2="158.7" stroke="#e0a100" stroke-width="2"/><line x1="444" y1="155.5" x2="444" y2="158.7" stroke="#e0a100" stroke-width="2"/>
<text x="450" y="159.5" font-family="DejaVu Sans, Arial, sans-serif" font-size="11.5" font-weight="700" fill="#1f2a37" text-decoration="underline">id</text>
<text x="639" y="159.5" font-family="DejaVu Sans, Arial, sans-serif" font-size="10.5" fill="#8a97a8" text-anchor="end">SERIAL</text>
<rect x="421" y="168" width="229" height="25" fill="#f7f2fb"/>
<line x1="421" y1="168" x2="650" y2="168" stroke="#eef1f5" stroke-width="1"/>
<path d="M436,176.5 L440.2,180.5 L436,184.5 L431.8,180.5 Z" fill="#fff" stroke="#2d6cdf" stroke-width="1.8"/>
<text x="450" y="184.5" font-family="DejaVu Sans, Arial, sans-serif" font-size="11.5" font-weight="400" fill="#1f2a37">routeId</text>
<text x="639" y="184.5" font-family="DejaVu Sans, Arial, sans-serif" font-size="10.5" fill="#8a97a8" text-anchor="end">INTEGER</text>
<line x1="421" y1="193" x2="650" y2="193" stroke="#eef1f5" stroke-width="1"/>
<path d="M436,201.5 L440.2,205.5 L436,209.5 L431.8,205.5 Z" fill="#fff" stroke="#2d6cdf" stroke-width="1.8"/>
<text x="450" y="209.5" font-family="DejaVu Sans, Arial, sans-serif" font-size="11.5" font-weight="400" fill="#1f2a37">busId</text>
<text x="639" y="209.5" font-family="DejaVu Sans, Arial, sans-serif" font-size="10.5" fill="#8a97a8" text-anchor="end">INTEGER</text>
<rect x="421" y="218" width="229" height="25" fill="#f7f2fb"/>
<line x1="421" y1="218" x2="650" y2="218" stroke="#eef1f5" stroke-width="1"/>
<text x="450" y="234.5" font-family="DejaVu Sans, Arial, sans-serif" font-size="11.5" font-weight="400" fill="#1f2a37">departureTime</text>
<text x="639" y="234.5" font-family="DejaVu Sans, Arial, sans-serif" font-size="10.5" fill="#8a97a8" text-anchor="end">VARCHAR</text>
<line x1="421" y1="243" x2="650" y2="243" stroke="#eef1f5" stroke-width="1"/>
<text x="450" y="259.5" font-family="DejaVu Sans, Arial, sans-serif" font-size="11.5" font-weight="400" fill="#1f2a37">arrivalTime</text>
<text x="639" y="259.5" font-family="DejaVu Sans, Arial, sans-serif" font-size="10.5" fill="#8a97a8" text-anchor="end">VARCHAR</text>
<rect x="421" y="268" width="229" height="25" fill="#f7f2fb"/>
<line x1="421" y1="268" x2="650" y2="268" stroke="#eef1f5" stroke-width="1"/>
<text x="450" y="284.5" font-family="DejaVu Sans, Arial, sans-serif" font-size="11.5" font-weight="400" fill="#1f2a37">date</text>
<text x="639" y="284.5" font-family="DejaVu Sans, Arial, sans-serif" font-size="10.5" fill="#8a97a8" text-anchor="end">VARCHAR</text>
<line x1="421" y1="293" x2="650" y2="293" stroke="#eef1f5" stroke-width="1"/>
<text x="450" y="309.5" font-family="DejaVu Sans, Arial, sans-serif" font-size="11.5" font-weight="400" fill="#1f2a37">status</text>
<text x="639" y="309.5" font-family="DejaVu Sans, Arial, sans-serif" font-size="10.5" fill="#8a97a8" text-anchor="end">VARCHAR</text>
<rect x="822" y="203" width="231" height="283" rx="7" fill="#0b1b33" opacity="0.07"/>
<rect x="820" y="200" width="231" height="283" rx="7" fill="#ffffff" stroke="#d6dbe3" stroke-width="1.2"/>
<path d="M820,233 L820,207 Q820,200 827,200 L1044,200 Q1051,200 1051,207 L1051,233 Z" fill="#e63946"/>
<text x="935.5" y="221.5" font-family="DejaVu Sans, Arial, sans-serif" font-size="14" font-weight="700" fill="#ffffff" text-anchor="middle">Booking</text>
<circle cx="834" cy="245.5" r="3.3" fill="none" stroke="#e0a100" stroke-width="2"/><line x1="837" y1="245.5" x2="844" y2="245.5" stroke="#e0a100" stroke-width="2"/><line x1="841" y1="245.5" x2="841" y2="248.7" stroke="#e0a100" stroke-width="2"/><line x1="844" y1="245.5" x2="844" y2="248.7" stroke="#e0a100" stroke-width="2"/>
<text x="850" y="249.5" font-family="DejaVu Sans, Arial, sans-serif" font-size="11.5" font-weight="700" fill="#1f2a37" text-decoration="underline">id</text>
<text x="1039" y="249.5" font-family="DejaVu Sans, Arial, sans-serif" font-size="10.5" fill="#8a97a8" text-anchor="end">SERIAL</text>
<rect x="821" y="258" width="229" height="25" fill="#fdf3f3"/>
<line x1="821" y1="258" x2="1050" y2="258" stroke="#eef1f5" stroke-width="1"/>
<path d="M836,266.5 L840.2,270.5 L836,274.5 L831.8,270.5 Z" fill="#fff" stroke="#2d6cdf" stroke-width="1.8"/>
<text x="850" y="274.5" font-family="DejaVu Sans, Arial, sans-serif" font-size="11.5" font-weight="400" fill="#1f2a37">userId</text>
<text x="1039" y="274.5" font-family="DejaVu Sans, Arial, sans-serif" font-size="10.5" fill="#8a97a8" text-anchor="end">INTEGER</text>
<line x1="821" y1="283" x2="1050" y2="283" stroke="#eef1f5" stroke-width="1"/>
<path d="M836,291.5 L840.2,295.5 L836,299.5 L831.8,295.5 Z" fill="#fff" stroke="#2d6cdf" stroke-width="1.8"/>
<text x="850" y="299.5" font-family="DejaVu Sans, Arial, sans-serif" font-size="11.5" font-weight="400" fill="#1f2a37">scheduleId</text>
<text x="1039" y="299.5" font-family="DejaVu Sans, Arial, sans-serif" font-size="10.5" fill="#8a97a8" text-anchor="end">INTEGER</text>
<rect x="821" y="308" width="229" height="25" fill="#fdf3f3"/>
<line x1="821" y1="308" x2="1050" y2="308" stroke="#eef1f5" stroke-width="1"/>
<text x="850" y="324.5" font-family="DejaVu Sans, Arial, sans-serif" font-size="11.5" font-weight="400" fill="#1f2a37">seatNumber</text>
<text x="1039" y="324.5" font-family="DejaVu Sans, Arial, sans-serif" font-size="10.5" fill="#8a97a8" text-anchor="end">INTEGER</text>
<line x1="821" y1="333" x2="1050" y2="333" stroke="#eef1f5" stroke-width="1"/>
<text x="850" y="349.5" font-family="DejaVu Sans, Arial, sans-serif" font-size="11.5" font-weight="400" fill="#1f2a37">status</text>
<text x="1039" y="349.5" font-family="DejaVu Sans, Arial, sans-serif" font-size="10.5" fill="#8a97a8" text-anchor="end">ENUM</text>
<rect x="821" y="358" width="229" height="25" fill="#fdf3f3"/>
<line x1="821" y1="358" x2="1050" y2="358" stroke="#eef1f5" stroke-width="1"/>
<text x="850" y="374.5" font-family="DejaVu Sans, Arial, sans-serif" font-size="11.5" font-weight="400" fill="#1f2a37">totalPrice</text>
<text x="1039" y="374.5" font-family="DejaVu Sans, Arial, sans-serif" font-size="10.5" fill="#8a97a8" text-anchor="end">DECIMAL</text>
<line x1="821" y1="383" x2="1050" y2="383" stroke="#eef1f5" stroke-width="1"/>
<text x="850" y="399.5" font-family="DejaVu Sans, Arial, sans-serif" font-size="11.5" font-weight="400" fill="#1f2a37">qrCode</text>
<text x="1039" y="399.5" font-family="DejaVu Sans, Arial, sans-serif" font-size="10.5" fill="#8a97a8" text-anchor="end">VARCHAR</text>
<rect x="821" y="408" width="229" height="25" fill="#fdf3f3"/>
<line x1="821" y1="408" x2="1050" y2="408" stroke="#eef1f5" stroke-width="1"/>
<text x="850" y="424.5" font-family="DejaVu Sans, Arial, sans-serif" font-size="11.5" font-weight="400" fill="#1f2a37">scanned</text>
<text x="1039" y="424.5" font-family="DejaVu Sans, Arial, sans-serif" font-size="10.5" fill="#8a97a8" text-anchor="end">BOOLEAN</text>
<line x1="821" y1="433" x2="1050" y2="433" stroke="#eef1f5" stroke-width="1"/>
<text x="850" y="449.5" font-family="DejaVu Sans, Arial, sans-serif" font-size="11.5" font-weight="400" fill="#1f2a37">paymentMethod</text>
<text x="1039" y="449.5" font-family="DejaVu Sans, Arial, sans-serif" font-size="10.5" fill="#8a97a8" text-anchor="end">VARCHAR</text>
<rect x="821" y="458" width="229" height="25" fill="#fdf3f3"/>
<line x1="821" y1="458" x2="1050" y2="458" stroke="#eef1f5" stroke-width="1"/>
<text x="850" y="474.5" font-family="DejaVu Sans, Arial, sans-serif" font-size="11.5" font-weight="400" fill="#1f2a37">createdAt</text>
<text x="1039" y="474.5" font-family="DejaVu Sans, Arial, sans-serif" font-size="10.5" fill="#8a97a8" text-anchor="end">TIMESTAMP</text>
<rect x="1202" y="203" width="231" height="208" rx="7" fill="#0b1b33" opacity="0.07"/>
<rect x="1200" y="200" width="231" height="208" rx="7" fill="#ffffff" stroke="#d6dbe3" stroke-width="1.2"/>
<path d="M1200,233 L1200,207 Q1200,200 1207,200 L1424,200 Q1431,200 1431,207 L1431,233 Z" fill="#0096c7"/>
<text x="1315.5" y="221.5" font-family="DejaVu Sans, Arial, sans-serif" font-size="14" font-weight="700" fill="#ffffff" text-anchor="middle">Payment</text>
<circle cx="1214" cy="245.5" r="3.3" fill="none" stroke="#e0a100" stroke-width="2"/><line x1="1217" y1="245.5" x2="1224" y2="245.5" stroke="#e0a100" stroke-width="2"/><line x1="1221" y1="245.5" x2="1221" y2="248.7" stroke="#e0a100" stroke-width="2"/><line x1="1224" y1="245.5" x2="1224" y2="248.7" stroke="#e0a100" stroke-width="2"/>
<text x="1230" y="249.5" font-family="DejaVu Sans, Arial, sans-serif" font-size="11.5" font-weight="700" fill="#1f2a37" text-decoration="underline">id</text>
<text x="1419" y="249.5" font-family="DejaVu Sans, Arial, sans-serif" font-size="10.5" fill="#8a97a8" text-anchor="end">SERIAL</text>
<rect x="1201" y="258" width="229" height="25" fill="#eff8fb"/>
<line x1="1201" y1="258" x2="1430" y2="258" stroke="#eef1f5" stroke-width="1"/>
<path d="M1216,266.5 L1220.2,270.5 L1216,274.5 L1211.8,270.5 Z" fill="#fff" stroke="#2d6cdf" stroke-width="1.8"/>
<text x="1230" y="274.5" font-family="DejaVu Sans, Arial, sans-serif" font-size="11.5" font-weight="400" fill="#1f2a37">bookingId</text>
<text x="1419" y="274.5" font-family="DejaVu Sans, Arial, sans-serif" font-size="10.5" fill="#8a97a8" text-anchor="end">INTEGER</text>
<line x1="1201" y1="283" x2="1430" y2="283" stroke="#eef1f5" stroke-width="1"/>
<text x="1230" y="299.5" font-family="DejaVu Sans, Arial, sans-serif" font-size="11.5" font-weight="400" fill="#1f2a37">amount</text>
<text x="1419" y="299.5" font-family="DejaVu Sans, Arial, sans-serif" font-size="10.5" fill="#8a97a8" text-anchor="end">DECIMAL</text>
<rect x="1201" y="308" width="229" height="25" fill="#eff8fb"/>
<line x1="1201" y1="308" x2="1430" y2="308" stroke="#eef1f5" stroke-width="1"/>
<text x="1230" y="324.5" font-family="DejaVu Sans, Arial, sans-serif" font-size="11.5" font-weight="400" fill="#1f2a37">method</text>
<text x="1419" y="324.5" font-family="DejaVu Sans, Arial, sans-serif" font-size="10.5" fill="#8a97a8" text-anchor="end">ENUM</text>
<line x1="1201" y1="333" x2="1430" y2="333" stroke="#eef1f5" stroke-width="1"/>
<text x="1230" y="349.5" font-family="DejaVu Sans, Arial, sans-serif" font-size="11.5" font-weight="400" fill="#1f2a37">transactionId</text>
<text x="1419" y="349.5" font-family="DejaVu Sans, Arial, sans-serif" font-size="10.5" fill="#8a97a8" text-anchor="end">VARCHAR</text>
<rect x="1201" y="358" width="229" height="25" fill="#eff8fb"/>
<line x1="1201" y1="358" x2="1430" y2="358" stroke="#eef1f5" stroke-width="1"/>
<text x="1230" y="374.5" font-family="DejaVu Sans, Arial, sans-serif" font-size="11.5" font-weight="400" fill="#1f2a37">status</text>
<text x="1419" y="374.5" font-family="DejaVu Sans, Arial, sans-serif" font-size="10.5" fill="#8a97a8" text-anchor="end">VARCHAR</text>
<line x1="1201" y1="383" x2="1430" y2="383" stroke="#eef1f5" stroke-width="1"/>
<text x="1230" y="399.5" font-family="DejaVu Sans, Arial, sans-serif" font-size="11.5" font-weight="400" fill="#1f2a37">createdAt</text>
<text x="1419" y="399.5" font-family="DejaVu Sans, Arial, sans-serif" font-size="10.5" fill="#8a97a8" text-anchor="end">TIMESTAMP</text>
<rect x="1202" y="523" width="216" height="83" rx="7" fill="#0b1b33" opacity="0.07"/>
<rect x="1200" y="520" width="216" height="83" rx="7" fill="#ffffff" stroke="#d6dbe3" stroke-width="1.2"/>
<path d="M1200,553 L1200,527 Q1200,520 1207,520 L1409,520 Q1416,520 1416,527 L1416,553 Z" fill="#d4a017"/>
<text x="1308.0" y="541.5" font-family="DejaVu Sans, Arial, sans-serif" font-size="14" font-weight="700" fill="#ffffff" text-anchor="middle">Setting</text>
<circle cx="1214" cy="565.5" r="3.3" fill="none" stroke="#e0a100" stroke-width="2"/><line x1="1217" y1="565.5" x2="1224" y2="565.5" stroke="#e0a100" stroke-width="2"/><line x1="1221" y1="565.5" x2="1221" y2="568.7" stroke="#e0a100" stroke-width="2"/><line x1="1224" y1="565.5" x2="1224" y2="568.7" stroke="#e0a100" stroke-width="2"/>
<text x="1230" y="569.5" font-family="DejaVu Sans, Arial, sans-serif" font-size="11.5" font-weight="700" fill="#1f2a37" text-decoration="underline">key</text>
<text x="1404" y="569.5" font-family="DejaVu Sans, Arial, sans-serif" font-size="10.5" fill="#8a97a8" text-anchor="end">VARCHAR</text>
<rect x="1201" y="578" width="214" height="25" fill="#fcf9f1"/>
<line x1="1201" y1="578" x2="1415" y2="578" stroke="#eef1f5" stroke-width="1"/>
<text x="1230" y="594.5" font-family="DejaVu Sans, Arial, sans-serif" font-size="11.5" font-weight="400" fill="#1f2a37">value</text>
<text x="1404" y="594.5" font-family="DejaVu Sans, Arial, sans-serif" font-size="10.5" fill="#8a97a8" text-anchor="end">TEXT</text>
<rect x="14" y="737" width="430" height="28" rx="8" fill="#ffffff" stroke="#d6dbe3" stroke-width="1"/>
<text x="24" y="756" font-family="DejaVu Sans, Arial, sans-serif" font-size="11" font-weight="700" fill="#5c6b82">Chu thich:</text>
<circle cx="100" cy="752" r="3.3" fill="none" stroke="#e0a100" stroke-width="2"/><line x1="103" y1="752" x2="110" y2="752" stroke="#e0a100" stroke-width="2"/><line x1="107" y1="752" x2="107" y2="755.2" stroke="#e0a100" stroke-width="2"/><line x1="110" y1="752" x2="110" y2="755.2" stroke="#e0a100" stroke-width="2"/>
<text x="116" y="756" font-family="DejaVu Sans, Arial, sans-serif" font-size="11" fill="#5c6b82">Khoa chinh</text>
<path d="M212,748 L216.2,752 L212,756 L207.8,752 Z" fill="#fff" stroke="#2d6cdf" stroke-width="1.8"/>
<text x="220" y="756" font-family="DejaVu Sans, Arial, sans-serif" font-size="11" fill="#5c6b82">Khoa ngoai</text>
<circle cx="320" cy="752" r="3.6" fill="#fff" stroke="#1a843f" stroke-width="2"/>
<text x="328" y="756" font-family="DejaVu Sans, Arial, sans-serif" font-size="11" fill="#5c6b82">Duy nhat</text>
</svg>